<svg xmlns="http://www.w3.org/2000/svg" xmlns:forge="https://svgforge.dev/ns"
     viewBox="0 0 800 600" forge:mode="static" forge:version="1">
  <g id="bg-layer" forge:name="Background" forge:visible="true">
    <rect id="bg" x="0" y="0" width="800" height="600" fill="#2a2a2a"/>
  </g>
  <g id="shapes-layer" forge:name="Shapes" forge:visible="true">
    <rect id="box1" x="50" y="50" width="150" height="100" fill="#4fc3f7" rx="8"/>
    <circle id="circle1" cx="400" cy="150" r="60" fill="#ff7043"/>
    <ellipse id="oval1" cx="600" cy="150" rx="80" ry="50" fill="#66bb6a"/>
  </g>
  <g id="paths-layer" forge:name="Paths" forge:visible="true">
    <path id="star" d="M400,250 L420,320 L490,320 L435,360 L455,430 L400,390 L345,430 L365,360 L310,320 L380,320 Z" fill="#ffd54f" stroke="#f9a825" stroke-width="2"/>
    <path id="curve1" d="M100,400 C150,300 250,500 300,400 C350,300 450,500 500,400" fill="none" stroke="#ce93d8" stroke-width="3"/>
    <path id="wave" d="M50,500 Q150,450 250,500 Q350,550 450,500 Q550,450 650,500 Q750,550 800,500" fill="none" stroke="#4dd0e1" stroke-width="2"/>
  </g>
</svg>
